<?xml version="1.0" encoding="UTF-8" standalone="no"?>
<svg
   xmlns:dc="http://purl.org/dc/elements/1.1/"
   xmlns:cc="http://creativecommons.org/ns#"
   xmlns:rdf="http://www.w3.org/1999/02/22-rdf-syntax-ns#"
   xmlns:svg="http://www.w3.org/2000/svg"
   xmlns="http://www.w3.org/2000/svg"
   xmlns:sodipodi="http://sodipodi.sourceforge.net/DTD/sodipodi-0.dtd"
   xmlns:inkscape="http://www.inkscape.org/namespaces/inkscape"
   version="1.1"
   width="512"
   height="512"
   x="0"
   y="0"
   viewBox="0 0 512 512"
   style="enable-background:new 0 0 512 512"
   class=""
   id="svg3757"
   sodipodi:docname="decrease2.svg"
   inkscape:version="0.92.4 (5da689c313, 2019-01-14)">
  <metadata
     id="metadata3763">
    <rdf:RDF>
      <cc:Work
         rdf:about="">
        <dc:format>image/svg+xml</dc:format>
        <dc:type
           rdf:resource="http://purl.org/dc/dcmitype/StillImage" />
        <dc:title></dc:title>
      </cc:Work>
    </rdf:RDF>
  </metadata>
  <defs
     id="defs3761" />
  <sodipodi:namedview
     pagecolor="#ffffff"
     bordercolor="#666666"
     borderopacity="1"
     objecttolerance="10"
     gridtolerance="10"
     guidetolerance="10"
     inkscape:pageopacity="0"
     inkscape:pageshadow="2"
     inkscape:window-width="1920"
     inkscape:window-height="1011"
     id="namedview3759"
     showgrid="false"
     inkscape:snap-page="false"
     inkscape:zoom="1.6484375"
     inkscape:cx="256"
     inkscape:cy="328.79621"
     inkscape:window-x="-8"
     inkscape:window-y="-8"
     inkscape:window-maximized="1"
     inkscape:current-layer="g3751" />
  <g
     id="g3753">
    <g
       id="g3751">
      <path
         d="M 488.597 490.403 L 21.597 490.403 L 21.597 23.403 C 21.597 15.112 19.539 -0.313 11.248 -0.313 C 2.957 -0.313 0 6.709 0 15 L 0 497 C 0 505.291 6.709 512 15 512 L 497 512 C 505.291 512 512 507.092 512 498.801 C 512 490.51 496.888 490.403 488.597 490.403 Z"
         fill="#000000"
         data-original="#000000"
         style=""
         class=""
         id="path3739" />
      <path
         d="m 76.90816,37.014802 c -4.015558,7.32829 -1.242018,16.437251 5.942808,20.365928 l 347.517652,190.79656 -19.57258,2.20703 c -8.23466,0.92874 -14.1547,8.35392 -13.22596,16.58857 0.95991,8.2955 8.40486,14.1395 16.58858,13.22596 l 66.6594,-7.51815 c 5.16325,-0.57604 9.65877,-3.79236 11.87729,-8.49895 2.21852,-4.7066 1.85358,-10.2168 -0.97854,-14.57788 l -40.84785,-62.90033 c -4.51559,-6.95342 -13.79621,-8.92609 -20.74963,-4.4105 -6.95342,4.5156 -8.92609,13.79622 -4.4105,20.74964 l 8.44189,12.9994 L 97.27463,31.072833 C 89.996296,27.101147 80.875436,29.757215 76.90816,37.014802 Z"
         data-original="#000000"
         style="fill:#000000"
         class=""
         id="path3741"
         inkscape:connector-curvature="0" />
      <path
         d="M 136.277 151.898 L 75.277 151.898 C 66.986 151.898 60.277 158.607 60.277 166.898 L 60.277 437.898 C 60.277 446.189 66.986 452.898 75.277 452.898 L 136.277 452.898 C 144.568 452.898 151.277 446.189 151.277 437.898 L 151.277 166.898 C 151.277 158.607 144.568 151.898 136.277 151.898 Z"
         fill="#000000"
         data-original="#000000"
         style=""
         class=""
         id="path3743" />
      <path
         d="M 436.194 451.991 L 497.194 451.991 C 505.485 451.991 512.194 445.282 512.194 436.991 L 512.194 345.991 C 512.194 337.7 505.485 330.991 497.194 330.991 L 436.194 330.991 C 427.903 330.991 421.194 337.7 421.194 345.991 L 421.194 436.991 C 421.194 445.282 427.903 451.991 436.194 451.991 Z"
         fill="#000000"
         data-original="#000000"
         style=""
         class=""
         id="path3745" />
      <path
         d="M 315.892 271.516 C 307.601 271.516 300.892 278.225 300.892 286.516 L 300.892 437.516 C 300.892 445.807 307.601 452.516 315.892 452.516 L 375.892 452.516 C 384.183 452.516 390.892 445.807 390.892 437.516 L 390.892 286.516 C 390.892 278.225 384.183 271.516 375.892 271.516 Z"
         fill="#000000"
         data-original="#000000"
         style=""
         class=""
         id="path3747" />
      <path
         d="M 195.986 211.022 C 187.695 211.022 180.986 217.731 180.986 226.022 L 180.986 437.022 C 180.986 445.313 187.695 452.022 195.986 452.022 L 255.986 452.022 C 264.277 452.022 270.986 445.313 270.986 437.022 L 270.986 226.022 C 270.986 217.731 264.277 211.022 255.986 211.022 Z"
         fill="#000000"
         data-original="#000000"
         style=""
         class=""
         id="path3749" />
    </g>
  </g>
  <path
     d="m 398.505,167.97 c 48.087,0 87.209,-37.64 87.209,-83.905 0,-46.267 -39.122,-83.907 -87.209,-83.907 -48.086,0 -87.207,37.64 -87.207,83.907 0,46.266 39.121,83.905 87.207,83.905 z m -51.158,-30.99 c 0.191,-14.264 12.304,-25.814 27.174,-25.814 h 47.97 c 14.87,0 26.983,11.55 27.174,25.814 -13.426,12.024 -31.413,19.393 -51.16,19.393 -19.744,-10e-4 -37.733,-7.369 -51.158,-19.393 z m 51.158,-37.413 c -17.023,0 -30.873,-13.325 -30.873,-29.705 0,-16.378 13.85,-29.704 30.873,-29.704 17.025,0 30.873,13.326 30.873,29.704 0,16.38 -13.848,29.705 -30.873,29.705 z m 0,-87.811 c 41.441,0 75.155,32.438 75.155,72.309 0,15.529 -5.116,29.929 -13.809,41.726 -4.545,-13.601 -16.901,-23.854 -31.963,-25.858 8.329,-7.537 13.545,-18.226 13.545,-30.07 0,-22.774 -19.257,-41.302 -42.928,-41.302 -23.67,0 -42.927,18.528 -42.927,41.302 0,11.844 5.216,22.533 13.545,30.07 -15.062,2.004 -27.418,12.257 -31.962,25.858 -8.693,-11.797 -13.809,-26.197 -13.809,-41.726 0.001,-39.871 33.714,-72.309 75.153,-72.309 z"
     data-original="#000000"
     style="fill:#000000"
     class=""
     id="path3755"
     inkscape:connector-curvature="0" />
</svg>
