<svg width="515" height="510" xmlns="http://www.w3.org/2000/svg" xmlns:xlink="http://www.w3.org/1999/xlink" preserveAspectRatio="xMidYMid meet" version="1.1">
 <defs>
  <path id="f6KmJ3N0a9" d="m21.6,490.4c0,-280.2 0,-435.86 0,-467c0,-8.29 -2.06,-23.71 -10.35,-23.71c-8.29,0 -11.25,7.02 -11.25,15.31c0,48.2 0,433.8 0,482c0,8.29 6.71,15 15,15c48.2,0 433.8,0 482,0c8.29,0 15,-4.91 15,-13.2c0,-8.29 -15.11,-8.4 -23.4,-8.4c-62.27,0 -217.94,0 -467,0z"/>
  <path id="aLIOpjmoS" d="m91.79,56.15c23.17,12.72 139.01,76.32 347.52,190.8c-11.74,1.32 -18.27,2.06 -19.57,2.2c-8.24,0.93 -14.16,8.36 -13.23,16.59c0.96,8.3 8.41,14.14 16.59,13.23c6.66,-0.75 59.99,-6.77 66.66,-7.52c5.16,-0.58 9.66,-3.79 11.88,-8.5c2.21,-4.7 1.85,-10.22 -0.98,-14.58c-4.09,-6.29 -36.77,-56.61 -40.85,-62.9c-4.52,-6.95 -13.8,-8.92 -20.75,-4.41c-6.95,4.52 -8.93,13.8 -4.41,20.75c0.56,0.87 3.38,5.2 8.44,13c-202.12,-110.98 -314.42,-172.64 -336.88,-184.97c-7.27,-3.97 -16.39,-1.31 -20.36,5.94c-4.02,7.33 -1.24,16.44 5.94,20.37z"/>
  <path id="c7VsJa7Yl" d="m75.28,151.9c-8.29,0 -15,6.71 -15,15c0,27.1 0,243.9 0,271c0,8.29 6.71,15 15,15c6.1,0 54.9,0 61,0c8.29,0 15,-6.71 15,-15c0,-27.1 0,-243.9 0,-271c0,-8.29 -6.71,-15 -15,-15c-12.2,0 -54.9,0 -61,0z"/>
  <path id="b5QIzkqIPL" d="m497.19,451.99c8.3,0 15,-6.71 15,-15c0,-9.1 0,-81.9 0,-91c0,-8.29 -6.7,-15 -15,-15c-6.1,0 -54.9,0 -61,0c-8.29,0 -15,6.71 -15,15c0,9.1 0,81.9 0,91c0,8.29 6.71,15 15,15c12.2,0 54.9,0 61,0z"/>
  <path id="b1Un21yx87" d="m315.89,271.52c-8.29,0 -15,6.71 -15,15c0,15.1 0,135.9 0,151c0,8.29 6.71,15 15,15c6,0 54,0 60,0c8.29,0 15,-6.71 15,-15c0,-15.1 0,-135.9 0,-151c0,-8.29 -6.71,-15 -15,-15c-12,0 -48,0 -60,0z"/>
  <path id="g2umC7wMC1" d="m195.99,211.02c-8.29,0 -15,6.71 -15,15c0,21.1 0,189.9 0,211c0,8.29 6.71,15 15,15c6,0 54,0 60,0c8.29,0 15,-6.71 15,-15c0,-21.1 0,-189.9 0,-211c0,-8.29 -6.71,-15 -15,-15c-12,0 -48,0 -60,0z"/>
  <path id="coDMt5aL2" d="m485.71,83.91c0,-46.27 -39.12,-83.91 -87.2,-83.91c-48.09,0 -87.21,37.64 -87.21,83.91c0,46.26 39.12,83.9 87.21,83.9c48.08,0 87.2,-37.64 87.2,-83.9zm-111.19,27.1c4.8,0 43.17,0 47.97,0c14.87,0 26.98,11.55 27.18,25.81c-13.43,12.02 -31.42,19.39 -51.16,19.39c-19.75,0 -37.74,-7.37 -51.16,-19.39c0.19,-14.26 12.3,-25.81 27.17,-25.81zm-6.89,-41.31c0,-16.38 13.85,-29.7 30.88,-29.7c17.02,0 30.87,13.32 30.87,29.7c0,16.38 -13.85,29.71 -30.87,29.71c-17.03,0 -30.88,-13.33 -30.88,-29.71zm106.03,14.21c0,15.52 -5.12,29.92 -13.81,41.72c-4.54,-13.6 -16.9,-23.85 -31.96,-25.86c8.33,-7.53 13.54,-18.22 13.54,-30.07c0,-22.77 -19.25,-41.3 -42.92,-41.3c-23.67,0 -42.93,18.53 -42.93,41.3c0,11.85 5.21,22.54 13.54,30.07c-15.06,2.01 -27.41,12.26 -31.96,25.86c-8.69,-11.8 -13.81,-26.2 -13.81,-41.72c0,-39.88 33.72,-72.31 75.16,-72.31c41.44,0 75.15,32.43 75.15,72.31z"/>
 </defs>
 <g>
  <title>Layer 1</title>
  <g id="svg_1">
   <g id="svg_2">
    <g id="svg_3">
     <use id="svg_4" fill="#000000" xlink:href="#f6KmJ3N0a9"/>
     <g id="svg_5">
      <use id="svg_6" stroke-opacity="0" stroke="#000000" fill-opacity="0" xlink:href="#f6KmJ3N0a9"/>
     </g>
    </g>
    <g id="svg_7">
     <use id="svg_8" fill="#000000" xlink:href="#aLIOpjmoS"/>
     <g id="svg_9">
      <use id="svg_10" stroke-opacity="0" stroke="#000000" fill-opacity="0" xlink:href="#aLIOpjmoS"/>
     </g>
    </g>
    <g id="svg_11">
     <use id="svg_12" fill="#000000" xlink:href="#c7VsJa7Yl"/>
     <g id="svg_13">
      <use id="svg_14" stroke-opacity="0" stroke="#000000" fill-opacity="0" xlink:href="#c7VsJa7Yl"/>
     </g>
    </g>
    <g id="svg_15">
     <use id="svg_16" fill="#000000" xlink:href="#b5QIzkqIPL"/>
     <g id="svg_17">
      <use id="svg_18" stroke-opacity="0" stroke="#000000" fill-opacity="0" xlink:href="#b5QIzkqIPL"/>
     </g>
    </g>
    <g id="svg_19">
     <use id="svg_20" fill="#000000" xlink:href="#b1Un21yx87"/>
     <g id="svg_21">
      <use id="svg_22" stroke-opacity="0" stroke="#000000" fill-opacity="0" xlink:href="#b1Un21yx87"/>
     </g>
    </g>
    <g id="svg_23">
     <use id="svg_24" fill="#000000" xlink:href="#g2umC7wMC1"/>
     <g id="svg_25">
      <use id="svg_26" stroke-opacity="0" stroke="#000000" fill-opacity="0" xlink:href="#g2umC7wMC1"/>
     </g>
    </g>
    <g id="svg_27">
     <use id="svg_28" fill="#000000" xlink:href="#coDMt5aL2"/>
     <g id="svg_29">
      <use id="svg_30" stroke-opacity="0" stroke="#000000" fill-opacity="0" xlink:href="#coDMt5aL2"/>
     </g>
    </g>
   </g>
  </g>
 </g>
</svg>