<?xml version="1.0" encoding="utf-8"?>
<svg version="1.1" width="512" height="512" x="0" y="0" viewBox="0 0 512 512" style="enable-background:new 0 0 512 512" class="" xmlns="http://www.w3.org/2000/svg">
  <g>
    <g xmlns="http://www.w3.org/2000/svg">
      <path d="M 488.597 490.403 L 21.597 490.403 L 21.597 23.403 C 21.597 15.112 19.539 -0.313 11.248 -0.313 C 2.957 -0.313 0 6.709 0 15 L 0 497 C 0 505.291 6.709 512 15 512 L 497 512 C 505.291 512 512 507.092 512 498.801 C 512 490.51 496.888 490.403 488.597 490.403 Z" fill="#000000" data-original="#000000" style="" class=""/>
      <path d="M 61.787 263.104 C 65.746 270.463 74.896 273.098 82.104 269.212 L 431.391 81.674 L 422.582 99.291 C 418.876 106.703 421.879 115.712 429.291 119.418 C 436.771 123.131 445.727 120.07 449.418 112.709 L 479.418 52.709 C 481.747 48.065 481.498 42.543 478.759 38.119 C 476.02 33.695 471.2 31 466 31 L 391 31 C 382.709 31 376 37.709 376 46 C 376 54.291 382.709 61 391 61 L 406.5 61 L 67.896 242.787 C 60.601 246.728 57.861 255.824 61.787 263.104 Z" fill="#000000" data-original="#000000" style="" class="" transform="matrix(0.544638, 0.838671, -0.838671, 0.544638, 249.814485, -158.100599)"/>
      <path d="M 136.277 151.898 L 75.277 151.898 C 66.986 151.898 60.277 158.607 60.277 166.898 L 60.277 437.898 C 60.277 446.189 66.986 452.898 75.277 452.898 L 136.277 452.898 C 144.568 452.898 151.277 446.189 151.277 437.898 L 151.277 166.898 C 151.277 158.607 144.568 151.898 136.277 151.898 Z" fill="#000000" data-original="#000000" style="" class=""/>
      <path d="M 436.194 451.991 L 497.194 451.991 C 505.485 451.991 512.194 445.282 512.194 436.991 L 512.194 345.991 C 512.194 337.7 505.485 330.991 497.194 330.991 L 436.194 330.991 C 427.903 330.991 421.194 337.7 421.194 345.991 L 421.194 436.991 C 421.194 445.282 427.903 451.991 436.194 451.991 Z" fill="#000000" data-original="#000000" style="" class=""/>
      <path d="M 315.892 271.516 C 307.601 271.516 300.892 278.225 300.892 286.516 L 300.892 437.516 C 300.892 445.807 307.601 452.516 315.892 452.516 L 375.892 452.516 C 384.183 452.516 390.892 445.807 390.892 437.516 L 390.892 286.516 C 390.892 278.225 384.183 271.516 375.892 271.516 Z" fill="#000000" data-original="#000000" style="" class=""/>
      <path d="M 195.986 211.022 C 187.695 211.022 180.986 217.731 180.986 226.022 L 180.986 437.022 C 180.986 445.313 187.695 452.022 195.986 452.022 L 255.986 452.022 C 264.277 452.022 270.986 445.313 270.986 437.022 L 270.986 226.022 C 270.986 217.731 264.277 211.022 255.986 211.022 Z" fill="#000000" data-original="#000000" style="" class=""/>
    </g>
  </g>
  <path d="M 398.505 171.87 C 446.592 171.87 485.714 134.23 485.714 87.965 C 485.714 41.698 446.592 4.058 398.505 4.058 C 350.419 4.058 311.298 41.698 311.298 87.965 C 311.298 134.231 350.419 171.87 398.505 171.87 Z M 347.347 140.88 C 347.538 126.616 359.651 115.066 374.521 115.066 L 422.491 115.066 C 437.361 115.066 449.474 126.616 449.665 140.88 C 436.239 152.904 418.252 160.273 398.505 160.273 C 378.761 160.272 360.772 152.904 347.347 140.88 Z M 398.505 103.467 C 381.482 103.467 367.632 90.142 367.632 73.762 C 367.632 57.384 381.482 44.058 398.505 44.058 C 415.53 44.058 429.378 57.384 429.378 73.762 C 429.378 90.142 415.53 103.467 398.505 103.467 Z M 398.505 15.656 C 439.946 15.656 473.66 48.094 473.66 87.965 C 473.66 103.494 468.544 117.894 459.851 129.691 C 455.306 116.09 442.95 105.837 427.888 103.833 C 436.217 96.296 441.433 85.607 441.433 73.763 C 441.433 50.989 422.176 32.461 398.505 32.461 C 374.835 32.461 355.578 50.989 355.578 73.763 C 355.578 85.607 360.794 96.296 369.123 103.833 C 354.061 105.837 341.705 116.09 337.161 129.691 C 328.468 117.894 323.352 103.494 323.352 87.965 C 323.353 48.094 357.066 15.656 398.505 15.656 Z" fill="#000000" data-original="#000000" style="" class=""/>
</svg>