<svg width="485" height="280" xmlns="http://www.w3.org/2000/svg">

 <g>
  <title>Layer 1</title>
  <g id="outline">
   <path id="svg_1" d="m429.472,143.28751a61.27,61.27 0 1 0 -82.076,0a57.467,57.467 0 0 0 -13.918,2.794a65.39,65.39 0 0 0 -46.267,-21.2a69.394,69.394 0 1 0 -88.422,0a65.394,65.394 0 0 0 -46.272,21.207a57.4,57.4 0 0 0 -13.915,-2.8a61.269,61.269 0 1 0 -82.074,0a58,58 0 0 0 -53.528,57.753l0,69.917a8,8 0 0 0 8,8l464,0a8,8 0 0 0 8,-8l0,-69.917a58,58 0 0 0 -53.528,-57.754zm-377.178,-45.455a45.27,45.27 0 1 1 45.269,45.27a45.321,45.321 0 0 1 -45.269,-45.27zm82.941,92.547l0,72.579l-76.283,0l0,-45.27a8,8 0 0 0 -16,0l0,45.27l-23.952,0l0,-61.917a41.987,41.987 0 0 1 41.94,-41.939l73.246,0a42.127,42.127 0 0 1 8.553,0.873a65.141,65.141 0 0 0 -7.504,30.404zm54.371,-118.95a53.394,53.394 0 1 1 53.394,53.393a53.455,53.455 0 0 1 -53.394,-53.393zm145.159,191.529l-30.045,0l0,-53.394a8,8 0 0 0 -16,0l0,53.394l-91.44,0l0,-53.394a8,8 0 0 0 -16,0l0,53.394l-30.045,0l0,-72.579a49.614,49.614 0 0 1 49.557,-49.557l84.416,0a49.614,49.614 0 0 1 49.557,49.557l0,72.579zm8.4,-165.126a45.27,45.27 0 1 1 45.27,45.27a45.321,45.321 0 0 1 -45.268,-45.27l-0.002,0zm123.835,165.126l-23.952,0l0,-45.27a8,8 0 0 0 -16,0l0,45.27l-76.283,0l0,-72.579a65.139,65.139 0 0 0 -7.5,-30.4a42.138,42.138 0 0 1 8.55,-0.879l73.245,0a41.987,41.987 0 0 1 41.94,41.941l0,61.917z"/>
  </g>
 </g>
</svg>