<?xml version="1.0" encoding="utf-8"?>
<svg version="1.1" width="512" height="512" x="0" y="0" viewBox="0 0 512 512" style="enable-background:new 0 0 512 512" class="" xmlns="http://www.w3.org/2000/svg">
  <g>
    <g xmlns="http://www.w3.org/2000/svg">
      <path d="M 488.597 490.403 L 21.597 490.403 L 21.597 23.403 C 21.597 15.112 19.539 -0.313 11.248 -0.313 C 2.957 -0.313 0 6.709 0 15 L 0 497 C 0 505.291 6.709 512 15 512 L 497 512 C 505.291 512 512 507.092 512 498.801 C 512 490.51 496.888 490.403 488.597 490.403 Z" fill="#000000" data-original="#000000" style="" class=""/>
      <path d="m75 452h61c8.291 0 15-6.709 15-15v-91c0-8.291-6.709-15-15-15h-61c-8.291 0-15 6.709-15 15v91c0 8.291 6.709 15 15 15z" fill="#000000" data-original="#000000" style="" class=""/>
      <path d="m196 271c-8.291 0-15 6.709-15 15v151c0 8.291 6.709 15 15 15h60c8.291 0 15-6.709 15-15v-151c0-8.291-6.709-15-15-15z" fill="#000000" data-original="#000000" style="" class=""/>
      <path d="m316 211c-8.291 0-15 6.709-15 15v211c0 8.291 6.709 15 15 15h60c8.291 0 15-6.709 15-15v-211c0-8.291-6.709-15-15-15z" fill="#000000" data-original="#000000" style="" class=""/>
      <path d="m497 151h-61c-8.291 0-15 6.709-15 15v271c0 8.291 6.709 15 15 15h61c8.291 0 15-6.709 15-15v-271c0-8.291-6.709-15-15-15z" fill="#000000" data-original="#000000" style="" class=""/>
      <path d="m61.787 263.104c3.959 7.359 13.109 9.994 20.317 6.108l349.287-187.538-8.809 17.617c-3.706 7.412-.703 16.421 6.709 20.127 7.48 3.713 16.436.652 20.127-6.709l30-60c2.329-4.644 2.08-10.166-.659-14.59s-7.559-7.119-12.759-7.119h-75c-8.291 0-15 6.709-15 15s6.709 15 15 15h15.5l-338.604 181.787c-7.295 3.941-10.035 13.037-6.109 20.317z" fill="#000000" data-original="#000000" style="" class=""/>
    </g>
  </g>
  <path d="M 149.157 173.341 C 197.244 173.341 236.366 135.701 236.366 89.436 C 236.366 43.169 197.244 5.529 149.157 5.529 C 101.071 5.529 61.95 43.169 61.95 89.436 C 61.95 135.702 101.071 173.341 149.157 173.341 Z M 97.999 142.351 C 98.19 128.087 110.303 116.537 125.173 116.537 L 173.143 116.537 C 188.013 116.537 200.126 128.087 200.317 142.351 C 186.891 154.375 168.904 161.744 149.157 161.744 C 129.413 161.743 111.424 154.375 97.999 142.351 Z M 149.157 104.938 C 132.134 104.938 118.284 91.613 118.284 75.233 C 118.284 58.855 132.134 45.529 149.157 45.529 C 166.182 45.529 180.03 58.855 180.03 75.233 C 180.03 91.613 166.182 104.938 149.157 104.938 Z M 149.157 17.127 C 190.598 17.127 224.312 49.565 224.312 89.436 C 224.312 104.965 219.196 119.365 210.503 131.162 C 205.958 117.561 193.602 107.308 178.54 105.304 C 186.869 97.767 192.085 87.078 192.085 75.234 C 192.085 52.46 172.828 33.932 149.157 33.932 C 125.487 33.932 106.23 52.46 106.23 75.234 C 106.23 87.078 111.446 97.767 119.775 105.304 C 104.713 107.308 92.357 117.561 87.813 131.162 C 79.12 119.365 74.004 104.965 74.004 89.436 C 74.005 49.565 107.718 17.127 149.157 17.127 Z" fill="#000000" data-original="#000000" style="" class=""/>
</svg>