<?xml version="1.0" encoding="utf-8"?>
<svg version="1.1" width="512" height="512" x="0" y="0" viewBox="0 0 512 512" style="enable-background:new 0 0 512 512" class="" xmlns="http://www.w3.org/2000/svg">
  <g>
    <title xmlns="http://www.w3.org/2000/svg">Tram</title>
    <path xmlns="http://www.w3.org/2000/svg" d="M474.37,295.5l13.89,42.91a25.094,25.094,0,0,1-25.09,25.09H277v-120H177v120H44.87a19.994,19.994,0,0,1-20-20v-150a19.994,19.994,0,0,1,20-20H420.32a20.005,20.005,0,0,1,19.03,13.84l8.47,26.16H408.87a19.994,19.994,0,0,0-20,20v42a19.994,19.994,0,0,0,20,20ZM348,292.5v-39a10,10,0,0,0-10-10H316a10,10,0,0,0-10,10v39a10,10,0,0,0,10,10h22A10,10,0,0,0,348,292.5Zm-211,0v-39a10,10,0,0,0-10-10H65a10,10,0,0,0-10,10v39a10,10,0,0,0,10,10h62A10,10,0,0,0,137,292.5Z" style="" fill="#e60010" data-original="#e48e66" class=""/>
    <path xmlns="http://www.w3.org/2000/svg" d="M447.82,213.5l26.55,82h-65.5a19.994,19.994,0,0,1-20-20v-42a19.994,19.994,0,0,1,20-20Z" style="fill: rgb(118, 209, 227);" data-original="#f8ec7d" class=""/>
    <path xmlns="http://www.w3.org/2000/svg" d="M366,363.5h70a35,35,0,0,1-70,0Z" style="" fill="#4e4e4e" data-original="#6fe3ff" class=""/>
    <rect xmlns="http://www.w3.org/2000/svg" x="306" y="243.5" width="42" height="59" rx="10" style="fill: rgb(118, 209, 227);" data-original="#f8ec7d" class=""/>
    <path xmlns="http://www.w3.org/2000/svg" d="M277,363.5h62.33a35,35,0,0,1-70,0Z" style="" fill="#4e4e4e" data-original="#6fe3ff" class=""/>
    <polygon xmlns="http://www.w3.org/2000/svg" points="277 243.5 277 363.5 269.33 363.5 242.67 363.5 227 363.5 227 361.5 227 243.5 277 243.5" style="" fill="#4e4e4e" data-original="#6fe3ff" class=""/>
    <path xmlns="http://www.w3.org/2000/svg" d="M227,363.5h15.67a35,35,0,0,1-70,0H227Z" style="" fill="#4e4e4e" data-original="#6fe3ff" class=""/>
    <polygon xmlns="http://www.w3.org/2000/svg" points="227 361.5 227 363.5 177 363.5 177 243.5 227 243.5 227 361.5" style="" fill="#4e4e4e" data-original="#6fe3ff" class=""/>
    <path xmlns="http://www.w3.org/2000/svg" d="M76,363.5h70a35,35,0,0,1-70,0Z" style="" fill="#4e4e4e" data-original="#6fe3ff" class=""/>
    <polygon xmlns="http://www.w3.org/2000/svg" style="" points="449.037 215.616 428.198 215.616 444.52 291.65 465.358 291.65" fill="#5ab9cc" data-original="#5ab9cc" class="" transform="matrix(0.994522, -0.104528, 0.104528, 0.994522, -24.06427, 48.090214)"/>
    <rect xmlns="http://www.w3.org/2000/svg" x="55" y="243.5" width="82" height="59" rx="10" style="fill: rgb(118, 209, 227);" data-original="#f8ec7d" class=""/>
    <path xmlns="http://www.w3.org/2000/svg" d="M144,254a17,17,0,0,0-17-17H65a17,17,0,0,0-17,17v39a17,17,0,0,0,17,17h62a17,17,0,0,0,17-17Zm-14,39a3,3,0,0,1-3,3H65a3,3,0,0,1-3-3V254a3,3,0,0,1,3-3h62a3,3,0,0,1,3,3Z" style="" fill="#000000" data-original="#63316d" class=""/>
    <path xmlns="http://www.w3.org/2000/svg" d="M355,254a17,17,0,0,0-17-17H316a17,17,0,0,0-17,17v39a17,17,0,0,0,17,17h22a17,17,0,0,0,17-17Zm-14,39a3,3,0,0,1-3,3H316a3,3,0,0,1-3-3V254a3,3,0,0,1,3-3h22a3,3,0,0,1,3,3Z" style="" fill="#000000" data-original="#63316d" class=""/>
    <path xmlns="http://www.w3.org/2000/svg" d="M152.405,371h13.86c3.343,19,20.631,35,41.405,35s38.061-16,41.405-35h13.85c3.344,19,20.632,35,41.4,35s38.062-16,41.405-35H359.6c3.343,19,20.632,35,41.4,35s38.062-16,41.4-35H463.17a32.524,32.524,0,0,0,32.09-32.465,7.409,7.409,0,0,0-.34-2.218L446.01,185.466A26.732,26.732,0,0,0,420.32,167H258.781l-43.923-23.888L283.724,107H310a7,7,0,0,0,0-14H234a7,7,0,0,0,0,14h19.578l-56.829,29.551A6.809,6.809,0,0,0,193,142.572a7.3,7.3,0,0,0,3.655,6.39L229.478,167H44.87A26.5,26.5,0,0,0,18,193.5v150C18,358.388,29.982,371,44.87,371H69.6c3.343,19,20.632,35,41.405,35S149.062,390,152.405,371Zm55.265,21a28.12,28.12,0,0,1-27.114-21h54.228A28.121,28.121,0,0,1,207.67,392ZM270,357H234V251h36Zm-50,0H184V251h36Zm84.33,35a28.121,28.121,0,0,1-27.114-21h54.228A28.12,28.12,0,0,1,304.33,392ZM401,392a28.121,28.121,0,0,1-27.114-21h54.228A28.121,28.121,0,0,1,401,392Zm63.743-103H408.87C401.7,289,396,282.668,396,275.5v-42c0-7.168,5.7-12.5,12.87-12.5h33.859ZM32,343.5v-150c0-7.168,5.7-12.5,12.87-12.5H420.32a12.965,12.965,0,0,1,12.37,9l5.5,17H408.87A26.5,26.5,0,0,0,382,233.5v42c0,14.888,11.982,27.5,26.87,27.5h60.4l11.956,36.678A18.306,18.306,0,0,1,463.17,357H284V243.5c0-3.866-3.134-6.5-7-6.5H177c-3.866,0-7,2.634-7,6.5V357H44.87C37.7,357,32,350.668,32,343.5ZM111,392a28.121,28.121,0,0,1-27.114-21h54.228A28.121,28.121,0,0,1,111,392Z" style="" fill="#000000" data-original="#63316d" class=""/>
  </g>
</svg>