<?xml version="1.0" encoding="UTF-8"?>
<svg class="" enable-background="new 0 0 512 512" version="1.1" viewBox="0 0 512 512" xmlns="http://www.w3.org/2000/svg">
<g fill="#756a6b" xmlns="http://www.w3.org/2000/svg">
<circle class="" cx="95.509" cy="408.5" r="42.5" style="" data-original="#756a6b"/>
<circle class="" cx="202.5" cy="408.5" r="42.5" style="" data-original="#756a6b"/>
<circle class="" cx="309.5" cy="408.5" r="42.5" style="" data-original="#756a6b"/>
<circle class="" cx="416.49" cy="408.5" r="42.5" style="" data-original="#756a6b"/>
</g>
<rect class="" x="7.499" y="391" width="497" height="30" fill="#e60010" style="" data-original="#2d86cc" xmlns="http://www.w3.org/2000/svg"/>
<rect class="" x="474.5" y="391" width="30" height="30" fill="#e60010" style="" data-original="#266fab" xmlns="http://www.w3.org/2000/svg"/>
<rect class="" x="30.999" y="181" width="450" height="30" fill="#e60010" style="" data-original="#2d86cc" xmlns="http://www.w3.org/2000/svg"/>
<rect class="" x="451" y="181" width="30" height="30" fill="#e60010" style="" data-original="#266fab" xmlns="http://www.w3.org/2000/svg"/>
<rect class="" x="7.499" y="301" width="497" height="90" fill="#e60010" style="" data-original="#ff5948" xmlns="http://www.w3.org/2000/svg"/>
<rect class="" x="474.5" y="301" width="30" height="90" fill="#de2236" style="" data-original="#d44a3c" xmlns="http://www.w3.org/2000/svg"/>
<rect x="37.499" y="331" width="74.79" height="30" fill="#ffd359" style="" data-original="#ffd359" xmlns="http://www.w3.org/2000/svg"/>
<polygon class="" points="504.5 301 7.499 301 30.999 211 481 211" fill="#76d1e3" style="" data-original="#76d1e3" xmlns="http://www.w3.org/2000/svg"/>
<polygon class="" points="481 211 451 211 474.5 301 504.5 301" fill="#5ab9cc" style="" data-original="#5ab9cc" xmlns="http://www.w3.org/2000/svg"/>
<rect class="" x="211" y="151" width="90" height="30" fill="#e60010" style="" data-original="#ff5948" xmlns="http://www.w3.org/2000/svg"/>
<rect class="" x="271" y="151" width="30" height="30" fill="#de2236" style="" data-original="#d44a3c" xmlns="http://www.w3.org/2000/svg"/>
<path class="" d="m511.99 300.9c-1e-3 -0.107-0.01-0.214-0.016-0.32-0.01-0.17-0.021-0.34-0.042-0.507-0.012-0.097-0.028-0.194-0.044-0.291-0.03-0.181-0.065-0.36-0.108-0.537-0.011-0.046-0.016-0.093-0.028-0.138l-10.039-38.446c-1.046-4.007-5.141-6.405-9.152-5.362-4.008 1.046-6.408 5.144-5.362 9.152l7.586 29.051h-83.519v-74.998h63.936l4.053 15.524c1.047 4.008 5.142 6.409 9.152 5.362 4.007-1.046 6.408-5.144 5.362-9.152l-5.274-20.197v-29.036c0-4.142-3.358-7.5-7.5-7.5h-172.5v-22.5c0-4.142-3.358-7.5-7.5-7.5h-16.774l-28.226-0.28-45 0.279c-4.142 0-7.5 3.358-7.5 7.5v22.5h-172.5c-4.142 0-7.5 3.358-7.5 7.5v29.036l-23.257 89.067c-0.012 0.045-0.016 0.091-0.027 0.136-0.043 0.178-0.078 0.358-0.108 0.54-0.016 0.096-0.032 0.193-0.044 0.289-0.021 0.167-0.033 0.337-0.042 0.508-6e-3 0.107-0.015 0.213-0.016 0.32 0 0.034-5e-3 0.067-5e-3 0.101v89.998 29.999c0 4.142 3.358 7.5 7.5 7.5h42.173c7.867 18.151 25.641 30 45.836 30s37.969-11.849 45.837-29.999h15.316c7.868 18.151 25.642 29.999 45.837 29.999 20.205 0 37.979-11.848 45.839-29.999h15.322c7.86 18.151 25.635 29.999 45.839 29.999 20.195 0 37.969-11.848 45.837-29.999h15.316c7.868 18.151 25.643 29.999 45.837 29.999s37.969-11.849 45.837-29.999h42.173c4.142 0 7.5-3.358 7.5-7.5v-29.999-89.998c0-0.035-5e-3 -0.068-5e-3 -0.102zm-14.995 7.601v74.999h-482v-74.999h118c4.142 0 7.5-3.358 7.5-7.5s-3.358-7.5-7.5-7.5h-17.271v-74.998h83.27v74.998h-33.999c-4.142 0-7.5 3.358-7.5 7.5s3.358 7.5 7.5 7.5h332zm-199.36-15h-83.27v-74.998h83.27v74.998zm98.636 0h-83.27v-74.998h83.27v74.998zm-177.77-135h37.271c0.076 1e-3 0.153 8e-3 0.229 8e-3s0.152-7e-3 0.228-8e-3h37.272v15h-75v-15zm-180 29.999h172.5 90 172.5v15h-435v-15zm-1.707 30h63.936v74.998h-83.519l19.583-74.998zm58.717 225c-11.768 0-22.36-5.748-28.758-15h57.516c-6.398 9.253-16.99 15-28.758 15zm106.99 0c-11.768 0-22.36-5.748-28.758-15h57.521c-6.394 9.253-16.988 15-28.763 15zm107 0c-11.775 0-22.369-5.748-28.763-15h57.521c-6.398 9.253-16.99 15-28.758 15zm106.99 0c-11.768 0-22.36-5.748-28.758-15h57.516c-6.398 9.253-16.99 15-28.758 15zm80.51-29.999h-39.868-0.074-81.138-0.069-25.707-0.077-81.123-0.091-25.71-0.082-81.129-0.074-25.706-0.074-81.138-0.069-39.871v-15h482v15z" style="" data-original="#000000" xmlns="http://www.w3.org/2000/svg"/>
<path class="" d="m112.28 323.5h-74.786c-4.142 0-7.5 3.358-7.5 7.5v29.999c0 4.142 3.358 7.5 7.5 7.5h74.786c4.142 0 7.5-3.358 7.5-7.5v-29.999c0-4.142-3.358-7.5-7.5-7.5zm-7.5 29.999h-59.786v-15h59.786v15z" style="" data-original="#000000" xmlns="http://www.w3.org/2000/svg"/>
<path class="" d="m372.5 333.5c0 4.142 3.358 7.5 7.5 7.5h53c4.142 0 7.5-3.358 7.5-7.5s-3.358-7.5-7.5-7.5h-53c-4.142 0-7.5 3.358-7.5 7.5z" style="" data-original="#000000" xmlns="http://www.w3.org/2000/svg"/>
<path class="" d="m433 353.5h-53c-4.142 0-7.5 3.358-7.5 7.5s3.358 7.5 7.5 7.5h53c4.142 0 7.5-3.358 7.5-7.5s-3.358-7.5-7.5-7.5z" style="" data-original="#000000" xmlns="http://www.w3.org/2000/svg"/>
</svg>
